<?xml version="1.0" encoding="UTF-8"?>
<!DOCTYPE svg PUBLIC "-//W3C//DTD SVG 1.1//EN" "http://www.w3.org/Graphics/SVG/1.1/DTD/svg11.dtd">
<!-- Creator: CorelDRAW 2017 -->
<svg xmlns="http://www.w3.org/2000/svg" xml:space="preserve" width="48.4319mm" height="48.4319mm" version="1.1" style="shape-rendering:geometricPrecision; text-rendering:geometricPrecision; image-rendering:optimizeQuality; fill-rule:evenodd; clip-rule:evenodd"
viewBox="0 0 96.91 96.91"
 xmlns:xlink="http://www.w3.org/1999/xlink">
 <defs>
  <style type="text/css">
   <![CDATA[
    .fil9 {fill:#664B18}
    .fil5 {fill:#738E85}
    .fil1 {fill:#8A4A28}
    .fil4 {fill:#94AA97}
    .fil10 {fill:#A5B6C2}
    .fil0 {fill:#C37F31}
    .fil8 {fill:#C38026}
    .fil11 {fill:#F2F7F8}
    .fil6 {fill:#FAB018}
    .fil7 {fill:#FAB018}
    .fil2 {fill:#55746C;fill-rule:nonzero}
    .fil3 {fill:#F2F7F8;fill-rule:nonzero}
   ]]>
  </style>
 </defs>
 <g id="Camada_x0020_1">
  <metadata id="CorelCorpID_0Corel-Layer"/>
  <g id="_1364643872176">
   <g>
    <g>
     <rect class="fil0" transform="matrix(4.41768 -4.41768 3.8707 3.8707 60.47 72.7742)" width="2.75" height="4.54"/>
     <rect class="fil1" transform="matrix(2.20884 -2.20884 3.8707 3.8707 66.5363 66.7079)" width="2.75" height="4.54"/>
    </g>
    <g>
     <path class="fil2" d="M33.93 9.78l-6.96 -2.01 -0.45 0.28 -0.19 -0.46 -1.43 0.39 -0.69 -1 -9.46 -2.76 -1.23 1.21 -0.75 -1.79 -1.44 0.43 -1.64 -1.32 -9.53 -2.75 65.46 65.46 5.25 -5.25 -35.32 -49.99 -1.64 -0.44zm-9.39 7.57l4.94 1.43 8.45 11.96 -13.39 -13.39z"/>
     <path class="fil3" d="M9.92 33.73l-9.75 -33.73 65.46 65.46 -5.25 5.25 -21.84 -15.43 -0.38 -1.85 -1.18 0.75 -26.6 -18.79 -0.48 -1.66zm7.6 -9.37l1.43 4.94 11.96 8.45 -13.39 -13.39z"/>
     <polygon class="fil4" points="14.67,32.35 7.42,7.25 62.12,61.95 59.83,64.25 "/>
     <path class="fil5" d="M20.33 20.16l0 0 41.79 41.79 -2.3 2.3 -39.5 -39.5c-1.26,-1.26 -1.26,-3.33 0,-4.59z"/>
     <polygon class="fil5" points="32.52,14.5 7.42,7.25 62.12,61.95 64.42,59.66 "/>
     <path class="fil4" d="M20.33 20.16l0 0 41.79 41.79 2.3 -2.3 -39.5 -39.5c-1.26,-1.26 -3.33,-1.26 -4.59,0z"/>
    </g>
    <g>
     <rect class="fil6" transform="matrix(4.41768 -4.41768 4.41768 4.41768 52.7671 71.3073)" width="4.24" height="1.15"/>
     <circle class="fil7" transform="matrix(4.41768 -4.41768 4.41768 4.41768 52.5222 76.1317)" r="0.88"/>
     <circle class="fil8" transform="matrix(2.5951 -2.5951 2.5951 2.5951 52.5222 76.1317)" r="0.88"/>
     <circle class="fil7" transform="matrix(4.41768 -4.41768 4.41768 4.41768 75.9602 52.6938)" r="0.88"/>
     <circle class="fil8" transform="matrix(2.5951 -2.5951 2.5951 2.5951 75.9602 52.6938)" r="0.88"/>
    </g>
    <rect class="fil9" transform="matrix(4.41768 -4.41768 0.203076 0.203076 73.4825 85.7867)" width="2.75" height="4.54"/>
    <rect class="fil9" transform="matrix(4.41768 -4.41768 0.203076 0.203076 70.3155 82.6197)" width="2.75" height="4.54"/>
    <rect class="fil9" transform="matrix(4.41768 -4.41768 0.203076 0.203076 67.1484 79.4526)" width="2.75" height="4.54"/>
    <rect class="fil9" transform="matrix(4.41768 -4.41768 0.203076 0.203076 63.9813 76.2855)" width="2.75" height="4.54"/>
    <g>
     <rect class="fil10" transform="matrix(4.41768 -4.41768 -1.43962 -1.43962 84.6015 96.9057)" width="2.75" height="4.54"/>
     <polygon class="fil10" points="90.67,90.84 96.73,84.77 95.52,81.07 90.19,78.23 84.13,84.3 "/>
     <polygon class="fil11" points="88.51,88.68 82.45,94.75 84.6,96.91 80.9,95.69 78.06,90.36 84.13,84.3 "/>
    </g>
   </g>
   <g>
    <g>
     <rect class="fil0" transform="matrix(4.41768 4.41768 -3.8707 3.8707 24.1313 60.4702)" width="2.75" height="4.54"/>
     <rect class="fil1" transform="matrix(2.20884 2.20884 -3.8707 3.8707 30.1976 66.5365)" width="2.75" height="4.54"/>
    </g>
    <g>
     <path class="fil2" d="M87.12 33.93l2.01 -6.96 -0.28 -0.45 0.46 -0.19 -0.39 -1.43 1 -0.69 2.76 -9.46 -1.21 -1.23 1.79 -0.75 -0.43 -1.44 1.32 -1.64 2.75 -9.53 -65.46 65.46 5.25 5.25 49.99 -35.32 0.44 -1.64zm-7.57 -9.39l-1.43 4.94 -11.96 8.45 13.39 -13.39z"/>
     <path class="fil3" d="M63.18 9.92l33.73 -9.75 -65.46 65.46 -5.25 -5.25 15.43 -21.84 1.85 -0.38 -0.75 -1.18 18.79 -26.6 1.66 -0.48zm9.37 7.6l-4.94 1.43 -8.45 11.96 13.39 -13.39z"/>
     <polygon class="fil4" points="64.56,14.67 89.66,7.42 34.95,62.12 32.66,59.83 "/>
     <path class="fil5" d="M76.75 20.33l0 0 -41.79 41.79 -2.3 -2.3 39.5 -39.5c1.26,-1.26 3.33,-1.26 4.59,0z"/>
     <polygon class="fil5" points="82.4,32.52 89.66,7.42 34.95,62.12 37.25,64.42 "/>
     <path class="fil4" d="M76.75 20.33l0 0 -41.79 41.79 2.3 2.3 39.5 -39.5c1.26,-1.26 1.26,-3.33 0,-4.59z"/>
    </g>
    <g>
     <rect class="fil6" transform="matrix(4.41768 4.41768 -4.41768 4.41768 25.5982 52.7673)" width="4.24" height="1.15"/>
     <circle class="fil7" transform="matrix(4.41768 4.41768 -4.41768 4.41768 20.7738 52.5224)" r="0.88"/>
     <circle class="fil8" transform="matrix(2.5951 2.5951 -2.5951 2.5951 20.7738 52.5224)" r="0.88"/>
     <circle class="fil7" transform="matrix(4.41768 4.41768 -4.41768 4.41768 44.2117 75.9604)" r="0.88"/>
     <circle class="fil8" transform="matrix(2.5951 2.5951 -2.5951 2.5951 44.2117 75.9604)" r="0.88"/>
    </g>
    <rect class="fil9" transform="matrix(4.41768 4.41768 -0.203076 0.203076 11.1188 73.4827)" width="2.75" height="4.54"/>
    <rect class="fil9" transform="matrix(4.41768 4.41768 -0.203076 0.203076 14.2858 70.3157)" width="2.75" height="4.54"/>
    <rect class="fil9" transform="matrix(4.41768 4.41768 -0.203076 0.203076 17.4529 67.1486)" width="2.75" height="4.54"/>
    <rect class="fil9" transform="matrix(4.41768 4.41768 -0.203076 0.203076 20.62 63.9815)" width="2.75" height="4.54"/>
    <g>
     <rect class="fil10" transform="matrix(4.41768 4.41768 1.43962 -1.43962 -0.000185735 84.6017)" width="2.75" height="4.54"/>
     <polygon class="fil10" points="6.07,90.67 12.13,96.73 15.83,95.52 18.67,90.19 12.61,84.13 "/>
     <polygon class="fil11" points="8.22,88.51 2.16,82.45 -0,84.6 1.22,80.9 6.54,78.06 12.61,84.13 "/>
    </g>
   </g>
  </g>
 </g>
</svg>
