<?xml version="1.0" encoding="UTF-8"?>
<!DOCTYPE svg PUBLIC "-//W3C//DTD SVG 1.1//EN" "http://www.w3.org/Graphics/SVG/1.1/DTD/svg11.dtd">
<!-- Creator: CorelDRAW 2017 -->
<svg xmlns="http://www.w3.org/2000/svg" xml:space="preserve" width="47.6626mm" height="47.6625mm" version="1.1" style="shape-rendering:geometricPrecision; text-rendering:geometricPrecision; image-rendering:optimizeQuality; fill-rule:evenodd; clip-rule:evenodd"
viewBox="0 0 86.58 86.58"
 xmlns:xlink="http://www.w3.org/1999/xlink">
 <defs>
  <style type="text/css">
   <![CDATA[
    .fil5 {fill:none}
    .fil6 {fill:#DE9706}
    .fil0 {fill:#F1D917}
    .fil2 {fill:#F26722}
    .fil4 {fill:#F26722}
    .fil3 {fill:#FAB018}
    .fil1 {fill:#FFFDE8}
    .fil7 {fill:#663333;fill-opacity:0.501961}
   ]]>
  </style>
    <clipPath id="id0">
     <path d="M43.29 32.53c5.94,0 10.76,4.82 10.76,10.76 0,5.94 -4.82,10.76 -10.76,10.76 -5.94,0 -10.76,-4.82 -10.76,-10.76 0,-5.94 4.82,-10.76 10.76,-10.76z"/>
    </clipPath>
 </defs>
 <g id="Camada_x0020_1">
  <metadata id="CorelCorpID_0Corel-Layer"/>
  <g id="_1364540279536">
   <circle class="fil0" cx="43.29" cy="43.29" r="43.29"/>
   <circle class="fil1" cx="43.29" cy="43.29" r="36.91"/>
   <path class="fil2" d="M74.86 62.43c-3.21,-6.48 -8.73,-11.81 -17.52,-15.5 -1.61,-4.88 0.03,-6.19 -1.58,-11.07 7.78,-3.54 14.82,-3.08 23.52,-0.77 0.6,2.64 0.92,5.38 0.92,8.2 0,7.01 -1.95,13.56 -5.34,19.14zm-12.43 -50.71c-6.48,3.21 -11.81,8.73 -15.5,17.52 -4.88,1.61 -6.19,-0.03 -11.07,1.58 -3.54,-7.78 -3.08,-14.82 -0.77,-23.52 2.64,-0.6 5.38,-0.92 8.2,-0.92 7.01,0 13.56,1.95 19.14,5.34zm-50.71 12.43c3.21,6.48 8.73,11.81 17.52,15.5 1.61,4.88 -0.03,6.19 1.58,11.07 -7.78,3.54 -14.82,3.08 -23.52,0.77 -0.6,-2.64 -0.92,-5.38 -0.92,-8.2 0,-7.01 1.95,-13.56 5.34,-19.14zm12.43 50.71c6.48,-3.21 11.81,-8.73 15.5,-17.52 4.88,-1.61 6.19,0.03 11.07,-1.58 3.54,7.78 3.08,14.82 0.77,23.52 -2.64,0.6 -5.38,0.92 -8.2,0.92 -7.01,0 -13.56,-1.95 -19.14,-5.34z"/>
   <circle class="fil3" cx="43.29" cy="43.29" r="14.51"/>
   <path class="fil0" d="M43.29 32.53c5.94,0 10.76,4.82 10.76,10.76 0,5.94 -4.82,10.76 -10.76,10.76 -5.94,0 -10.76,-4.82 -10.76,-10.76 0,-5.94 4.82,-10.76 10.76,-10.76z"/>
   <g style="clip-path:url(#id0)">
    <g>
     <g>
      <rect class="fil4" x="43.29" y="32.53" width="12.61" height="10.76"/>
      <rect class="fil1" x="30.68" y="32.53" width="12.61" height="10.76"/>
      <rect class="fil1" x="43.29" y="43.29" width="12.61" height="10.76"/>
      <rect class="fil4" x="30.68" y="43.29" width="12.61" height="10.76"/>
     </g>
    </g>
   </g>
   <path class="fil5" d="M43.29 32.53c5.94,0 10.76,4.82 10.76,10.76 0,5.94 -4.82,10.76 -10.76,10.76 -5.94,0 -10.76,-4.82 -10.76,-10.76 0,-5.94 4.82,-10.76 10.76,-10.76z"/>
   <circle class="fil6" cx="43.29" cy="3.32" r="1.88"/>
   <circle class="fil6" transform="matrix(4.41768 -4.41768 4.41768 4.41768 15.0259 15.0257)" r="0.3"/>
   <circle class="fil6" transform="matrix(1.65428E-13 -6.24755 6.24755 1.65428E-13 3.3175 43.2922)" r="0.3"/>
   <circle class="fil6" transform="matrix(-4.41768 -4.41768 4.41768 -4.41768 15.0259 71.5587)" r="0.3"/>
   <circle class="fil6" cx="43.29" cy="83.27" r="1.88"/>
   <circle class="fil6" transform="matrix(-4.41768 4.41768 -4.41768 -4.41768 71.5588 71.5587)" r="0.3"/>
   <circle class="fil6" transform="matrix(-4.96977E-13 6.24755 -6.24755 -4.96977E-13 83.2672 43.2922)" r="0.3"/>
   <circle class="fil6" transform="matrix(4.41768 4.41768 -4.41768 4.41768 71.5588 15.0257)" r="0.3"/>
   <path class="fil7" d="M43.29 0c23.91,0 43.29,19.38 43.29,43.29 0,23.91 -19.38,43.29 -43.29,43.29l0 -86.58z"/>
  </g>
 </g>
</svg>
